<svg xmlns="http://www.w3.org/2000/svg" width="189.273" height="74.832" viewBox="0 0 189.273 74.832">
  <g id="Group_7455" data-name="Group 7455" transform="translate(0 0)">
    <g id="Group_7454" data-name="Group 7454">
      <path id="Path_3996" data-name="Path 3996" d="M188.647,181.168a17.091,17.091,0,0,0-25.191,0,10.158,10.158,0,0,1-7.762,3.416,10.876,10.876,0,0,1-3.842-.7l21.57-38.271a2.463,2.463,0,0,0-.3-2.855,3.246,3.246,0,0,0-3.017-1.012l-44.511,7.926-13.515-15.835a3.3,3.3,0,0,0-4.264-.519,2.515,2.515,0,0,0-.583,3.793l11.729,13.742-24.323,4.331-24.33-4.332,24.326-28.5,5.752,6.739a3.3,3.3,0,0,0,4.264.519,2.515,2.515,0,0,0,.583-3.793l-8.175-9.579a3.28,3.28,0,0,0-4.848,0L63.674,149.669l-44.508-7.926a3.246,3.246,0,0,0-3.017,1.012,2.462,2.462,0,0,0-.3,2.855l17.335,30.774a3.227,3.227,0,0,0,4.083,1.207,2.575,2.575,0,0,0,1.357-3.633L24.081,148.14,94.041,160.6a3.411,3.411,0,0,0,1.194,0l69.954-12.457-18.1,32.123a17.139,17.139,0,0,0-24.339.905,10.521,10.521,0,0,1-15.514,0c-.031-.036-.063-.072-.1-.107a17.093,17.093,0,0,0-25.095.106,10.521,10.521,0,0,1-15.518,0,16.47,16.47,0,0,0-12.595-5.54,16.484,16.484,0,0,0-12.6,5.537,9.424,9.424,0,0,1-1.8,1.617,10.575,10.575,0,0,1-5.958,1.8,10.157,10.157,0,0,1-7.762-3.416,16.481,16.481,0,0,0-12.594-5.538A16.481,16.481,0,0,0,.624,181.168a2.514,2.514,0,0,0,.57,3.794,3.3,3.3,0,0,0,4.266-.507,10.15,10.15,0,0,1,7.757-3.411,10.15,10.15,0,0,1,7.758,3.412A16.487,16.487,0,0,0,33.572,190a17.194,17.194,0,0,0,9.684-2.934,15.207,15.207,0,0,0,2.909-2.609,10.529,10.529,0,0,1,15.518,0,17.083,17.083,0,0,0,25.192,0,10.524,10.524,0,0,1,15.515,0c.03.036.062.071.095.1a17.088,17.088,0,0,0,25.1-.1,10.529,10.529,0,0,1,15.519,0,15.1,15.1,0,0,0,2.9,2.6,17.184,17.184,0,0,0,9.7,2.945,16.489,16.489,0,0,0,12.6-5.544,10.529,10.529,0,0,1,15.518,0,3.3,3.3,0,0,0,4.265.507A2.514,2.514,0,0,0,188.647,181.168Z" transform="translate(0.001 -115.166)"/>
    </g>
  </g>
</svg>
