<svg xmlns="http://www.w3.org/2000/svg" width="18.006" height="18" viewBox="0 0 18.006 18">
    <defs>
        <style>
            .cls-1{fill:#dedede}
        </style>
    </defs>
    <path id="global" d="M15.7 2.961A9.1 9.1 0 0 0 5.3.786 9.1 9.1 0 0 0 .013 9.47a9.092 9.092 0 0 0 6.208 8.1 9.1 9.1 0 0 0 10.134-3.346A9 9 0 0 0 15.7 2.961zm-4.459 9.6a13.916 13.916 0 0 0-4.735.047 31.52 31.52 0 0 1-.2-3.056h5.4a29.729 29.729 0 0 1-.2 3.056c-.091-.017-.182-.032-.273-.047zM6.783 5.44a13.906 13.906 0 0 0 4.733-.047 31.52 31.52 0 0 1 .2 3.056h-5.4c.017-1.021.079-2.042.2-3.056.091.017.183.032.275.047zm6.029 3.009a31.841 31.841 0 0 0-.219-3.3 10.45 10.45 0 0 0 2.594-1.094 7.891 7.891 0 0 1 1.718 4.4h-4.092zm1.611-5.224a9.424 9.424 0 0 1-1.985.822 19.949 19.949 0 0 0-.538-2.419 7.868 7.868 0 0 1 2.524 1.6c-.015.005-.737-.695-.001-.003zm-3.8-1.975a16.85 16.85 0 0 1 .744 3.05 12.85 12.85 0 0 1-4.708 0A16.85 16.85 0 0 1 7.4 1.249a8 8 0 0 1 3.217 0c.014.028-1.052-.217.004 0zm-4.508.421a20.052 20.052 0 0 0-.527 2.376A9.4 9.4 0 0 1 3.6 3.225a7.866 7.866 0 0 1 2.524-1.6zm-3.278 2.38a10.392 10.392 0 0 0 2.594 1.094 31.842 31.842 0 0 0-.219 3.3H1.119a7.891 7.891 0 0 1 1.718-4.4c.048.035-1.009 1.264 0 .006zm2.375 5.5a31.842 31.842 0 0 0 .219 3.3 10.45 10.45 0 0 0-2.594 1.094 7.891 7.891 0 0 1-1.718-4.4zM3.6 14.771a9.418 9.418 0 0 1 1.985-.822 19.891 19.891 0 0 0 .539 2.418 7.866 7.866 0 0 1-2.524-1.6c.015-.004.737.695 0 .004zm3.8 1.975a16.874 16.874 0 0 1-.746-3.053 12.8 12.8 0 0 1 4.708 0 16.874 16.874 0 0 1-.746 3.053 7.992 7.992 0 0 1-3.217 0c-.005-.027 1.06.218.001 0zm4.508-.421a20.019 20.019 0 0 0 .527-2.376 9.424 9.424 0 0 1 1.985.822 7.87 7.87 0 0 1-2.524 1.6l.012-.042zm3.276-2.381a10.45 10.45 0 0 0-2.594-1.094 31.839 31.839 0 0 0 .219-3.3h4.093a7.891 7.891 0 0 1-1.718 4.4c-.044-.034 1.016-1.263.004-.005zm0 0" class="cls-1" transform="translate(-.002)"/>
</svg>
