<svg xmlns="http://www.w3.org/2000/svg" width="20" height="20" viewBox="0 0 20 20">
    <defs>
        <style>
            .cls-1{fill:black}
        </style>
    </defs>
    <path id="times-circle-regular_1_" d="M18 8a10 10 0 1 0 10 10A10 10 0 0 0 18 8zm0 18.065A8.065 8.065 0 1 1 26.065 18 8.062 8.062 0 0 1 18 26.065zm4.1-10.573L19.6 18l2.5 2.508a.484.484 0 0 1 0 .685l-.911.911a.484.484 0 0 1-.685 0L18 19.6l-2.508 2.5a.484.484 0 0 1-.685 0l-.911-.911a.484.484 0 0 1 0-.685L16.4 18l-2.5-2.508a.484.484 0 0 1 0-.685l.911-.911a.484.484 0 0 1 .685 0L18 16.4l2.508-2.5a.484.484 0 0 1 .685 0l.911.911a.484.484 0 0 1 0 .685z" class="cls-1" data-name="times-circle-regular (1)" transform="translate(-8 -8)"/>
</svg>
