<svg xmlns="http://www.w3.org/2000/svg" width="18.125" height="15.754" viewBox="0 0 18.125 15.754">
  <path id="cloud_down" d="M369.883,134.958a3.934,3.934,0,0,0-2.888-2.52,6.745,6.745,0,0,0-5.934-3.465,6.849,6.849,0,0,0-5.1,2.284,4.493,4.493,0,0,0-2.467,7.814,1.133,1.133,0,0,0,1.9-.832v-.007a1.086,1.086,0,0,0-.366-.82,2.237,2.237,0,0,1-.726-2.122,2.284,2.284,0,0,1,2.222-1.812,1.924,1.924,0,0,1,.566.078,4.53,4.53,0,0,1,8.38,1.194,1.528,1.528,0,0,1,.679-.147,1.7,1.7,0,0,1,1.6,1.126,1.551,1.551,0,0,1,.1.566,1.68,1.68,0,0,1-.639,1.316,1.2,1.2,0,0,0-.494.925,1.132,1.132,0,0,0,1.844.88,3.919,3.919,0,0,0,1.556-3.129A3.777,3.777,0,0,0,369.883,134.958Zm-7.361,5.6-.328.33v-5.16a1.132,1.132,0,1,0-2.265,0v5.16l-.332-.33a1.133,1.133,0,0,0-1.6,0,1.119,1.119,0,0,0,0,1.591l2.265,2.25a1.133,1.133,0,0,0,1.6,0l2.265-2.25a1.119,1.119,0,0,0,0-1.591,1.133,1.133,0,0,0-1.6,0Z" transform="translate(-351.996 -128.973)" fill="#7b7b7b" fill-rule="evenodd"/>
</svg>
