<svg xmlns="http://www.w3.org/2000/svg" width="22.5" height="30" viewBox="0 0 22.5 30">
  <path id="file-word-regular" d="M21.674,5.641,16.758.726A2.813,2.813,0,0,0,14.771-.1H2.813A2.822,2.822,0,0,0,0,2.718v24.37A2.813,2.813,0,0,0,2.813,29.9H19.688A2.813,2.813,0,0,0,22.5,27.088V7.633a2.825,2.825,0,0,0-.826-1.992ZM19.459,7.4H15V2.946ZM2.813,27.088V2.718h9.375V8.81a1.4,1.4,0,0,0,1.406,1.406h6.094V27.088ZM15.709,14.9a.7.7,0,0,0-.686.557c-1.207,5.723-1.2,5.589-1.23,6.063-.012-.07-.023-.152-.041-.252-.047-.3.018.012-1.383-5.829a.7.7,0,0,0-.686-.539H10.9a.714.714,0,0,0-.686.533c-1.43,5.8-1.406,5.636-1.453,6.075-.006-.064-.012-.146-.029-.246-.041-.3-.826-4.294-1.119-5.8a.7.7,0,0,0-.691-.568H5.941a.7.7,0,0,0-.686.867c.469,1.91,1.564,6.415,1.945,7.967a.7.7,0,0,0,.686.533H9.363a.7.7,0,0,0,.68-.533l1.049-4.183a7.233,7.233,0,0,0,.176-1.013l.17,1.013c.006.023.738,2.958,1.049,4.183a.7.7,0,0,0,.68.533h1.447a.7.7,0,0,0,.68-.533c1.219-4.8,1.77-6.971,2.021-7.967a.7.7,0,0,0-.68-.873h-.926Z" transform="translate(0 0.1)" fill="#367fee"/>
</svg>
