<svg xmlns="http://www.w3.org/2000/svg" width="22.5" height="30" viewBox="0 0 22.5 30">
  <path id="file-image-regular" d="M21.674,5.641,16.758.726A2.813,2.813,0,0,0,14.771-.1H2.813A2.822,2.822,0,0,0,0,2.718v24.37A2.813,2.813,0,0,0,2.813,29.9H19.688A2.813,2.813,0,0,0,22.5,27.088V7.633a2.825,2.825,0,0,0-.826-1.992ZM19.459,7.4H15V2.946ZM2.813,27.088V2.718h9.375V8.81a1.4,1.4,0,0,0,1.406,1.406h6.094V27.088Zm1.875-2.812H17.813v-7.5L16.436,15.4a.7.7,0,0,0-1,0l-5.127,5.126L8,18.213a.7.7,0,0,0-1,0L4.688,20.527ZM7.5,10.216a2.812,2.812,0,1,0,2.812,2.812A2.813,2.813,0,0,0,7.5,10.216Z" transform="translate(0 0.1)" fill="#a7a7a7"/>
</svg>
