<svg xmlns="http://www.w3.org/2000/svg" width="22.5" height="30" viewBox="0 0 22.5 30">
  <path id="file-excel-regular" d="M21.674,5.641,16.758.726A2.813,2.813,0,0,0,14.771-.1H2.813A2.822,2.822,0,0,0,0,2.718v24.37A2.813,2.813,0,0,0,2.813,29.9H19.688A2.813,2.813,0,0,0,22.5,27.088V7.633a2.825,2.825,0,0,0-.826-1.992ZM19.459,7.4H15V2.946ZM2.813,27.088V2.718h9.375V8.81a1.4,1.4,0,0,0,1.406,1.406h6.094V27.088Zm12.422-14.06H13.547a.7.7,0,0,0-.615.369,30.61,30.61,0,0,0-1.676,3.38c-.814-1.7-.4-1.013-1.676-3.38a.706.706,0,0,0-.621-.369H7.266a.7.7,0,0,0-.609,1.054l2.713,4.569L6.656,23.222a.7.7,0,0,0,.609,1.054H8.959a.7.7,0,0,0,.615-.369,30.455,30.455,0,0,0,1.676-3.38c.873,1.769.346.931,1.676,3.38a.706.706,0,0,0,.621.369h1.687a.7.7,0,0,0,.609-1.054l-2.719-4.569c.041-.064,1.775-2.958,2.713-4.569A.7.7,0,0,0,15.234,13.028Z" transform="translate(0 0.1)" fill="#16a085"/>
</svg>
