<svg xmlns="http://www.w3.org/2000/svg" width="22.496" height="30" viewBox="0 0 22.496 30">
  <path id="file-pdf-regular" d="M21.67,5.641,16.755.726A2.812,2.812,0,0,0,14.769-.1H2.812A2.821,2.821,0,0,0,0,2.718v24.37A2.813,2.813,0,0,0,2.812,29.9H19.684A2.813,2.813,0,0,0,22.5,27.088V7.633a2.826,2.826,0,0,0-.826-1.992ZM19.455,7.4H15V2.946ZM2.812,27.088V2.718h9.373V8.81a1.4,1.4,0,0,0,1.406,1.406h6.093V27.088ZM17.469,18.67c-.715-.7-2.753-.51-3.773-.381a5.08,5.08,0,0,1-2.156-2.712,7.368,7.368,0,0,0,.316-3.281,1.306,1.306,0,0,0-2.5-.346,8.437,8.437,0,0,0,.41,3.931A47.042,47.042,0,0,1,7.7,20.24c-1.172.6-2.753,1.535-2.988,2.707-.193.926,1.523,3.234,4.458-1.828a29.044,29.044,0,0,1,4.007-1.178,7.8,7.8,0,0,0,3.269,1A1.353,1.353,0,0,0,17.469,18.67ZM5.864,23.227a7.024,7.024,0,0,1,1.781-2.05C6.532,22.952,5.864,23.268,5.864,23.227Zm4.78-11.166c.434,0,.393,1.88.105,2.39A4.912,4.912,0,0,1,10.644,12.062Zm-1.429,8a22.994,22.994,0,0,0,1.447-3.2,6.455,6.455,0,0,0,1.763,2.08A19.82,19.82,0,0,0,9.215,20.064Zm7.709-.293s-.293.351-2.185-.457C16.8,19.162,17.135,19.631,16.924,19.771Z" transform="translate(0 0.1)" fill="#ea4646"/>
</svg>
