<svg xmlns="http://www.w3.org/2000/svg" width="20.104" height="18" viewBox="0 0 20.104 18">
    <defs>
        <style>
            .cls-1{fill:#16a085}
        </style>
    </defs>
    <path id="factory_2_" d="M19.76 19.6a.723.723 0 0 0-.505-.1l-.162-7.9a.724.724 0 0 0-.724-.709h-2.1a.724.724 0 0 0-.724.709l-.171 8.309a.721.721 0 0 0-.979-.346l-.383.191v-4.125a.724.724 0 0 0-.724-.724h-.876a.724.724 0 0 0-.724.724v5.292l-.911.455v-1.157a.724.724 0 0 0-1.047-.648l-3.617 1.8v-1.152a.724.724 0 0 0-1.047-.648L.4 21.9a.724.724 0 0 0-.4.648v5.63a.724.724 0 0 0 .724.724H19.38a.724.724 0 0 0 .724-.724v-7.959a.724.724 0 0 0-.344-.619zM4.068 26.416a.724.724 0 0 1-.724.724H2.038a.724.724 0 0 1-.724-.724v-.9a.724.724 0 0 1 .724-.724h1.307a.724.724 0 0 1 .724.724zm5.552 0a.724.724 0 0 1-.724.724H7.591a.724.724 0 0 1-.724-.724v-.9a.724.724 0 0 1 .724-.724H8.9a.724.724 0 0 1 .724.724zm5.552 0a.724.724 0 0 1-.724.724h-1.305a.724.724 0 0 1-.724-.724v-.9a.724.724 0 0 1 .724-.724h1.306a.724.724 0 0 1 .724.724z" class="cls-1" data-name="factory (2)" transform="translate(0 -10.899)"/>
</svg>
