<svg xmlns="http://www.w3.org/2000/svg" width="8.442" height="9.286" viewBox="0 0 8.442 9.286">
  <path id="ic_directions_boat_24px" d="M9.6,9.442a2.968,2.968,0,0,1-1.688-.557,2.9,2.9,0,0,1-3.377,0,2.968,2.968,0,0,1-1.688.557H2v.844h.844a3.726,3.726,0,0,0,1.688-.418,3.694,3.694,0,0,0,3.377,0,3.673,3.673,0,0,0,1.688.418h.844V9.442ZM2.822,8.6h.021a2.3,2.3,0,0,0,1.688-.844A2.3,2.3,0,0,0,6.22,8.6a2.3,2.3,0,0,0,1.688-.844A2.3,2.3,0,0,0,9.6,8.6h.021l.8-2.82a.444.444,0,0,0-.025-.329.421.421,0,0,0-.253-.211L9.6,5.061V3.111a.847.847,0,0,0-.844-.844H7.486V1H4.953V2.266H3.687a.847.847,0,0,0-.844.844v1.95L2.3,5.238a.421.421,0,0,0-.253.211.425.425,0,0,0-.025.329Zm.865-5.487H8.752V4.786L6.22,3.955l-2.533.832Z" transform="translate(-1.998 -1)" fill="#16a085"/>
</svg>
